<svg version="1.1" xmlns="http://www.w3.org/2000/svg" xmlns:xlink="http://www.w3.org/1999/xlink" width="48" height="48"><defs><linearGradient x1="14.22989" y1="14.22989" x2="54.98331" y2="54.98331" gradientUnits="userSpaceOnUse" id="color-1"><stop offset="0" stop-color="#000000" stop-opacity="0.3"></stop><stop offset="1" stop-color="#000000" stop-opacity="0"></stop></linearGradient><filter id="dropshadow-base"><feColorMatrix type="matrix" values="0 0 0 0 0  0 0 0 0 0  0 0 0 0 0  0 0 0 .8 0"></feColorMatrix> <feOffset dx="0" dy="1"></feOffset> <feGaussianBlur stdDeviation="1"></feGaussianBlur> <feComposite in="SourceGraphic"></feComposite></filter><filter id="dropshadow-banner" x="-10%" y="-10%" width="120%" height="130%"><feColorMatrix type="matrix" values="0 0 0 0 0  0 0 0 0 0  0 0 0 0 0  0 0 0 .4 0"></feColorMatrix> <feOffset dx="0" dy="1"></feOffset> <feGaussianBlur stdDeviation="0.5"></feGaussianBlur> <feComposite in="SourceGraphic"></feComposite></filter></defs><g fill="none" fill-rule="nonzero" stroke="none" stroke-width="none" stroke-linecap="butt" stroke-linejoin="miter" stroke-miterlimit="10" stroke-dasharray="" stroke-dashoffset="0" font-family="none" font-weight="none" font-size="none" text-anchor="none" style="mix-blend-mode: normal"><path d="M10,46c-1.10457,0 -2,-0.89543 -2,-2v-40c0,-1.10457 0.89543,-2 2,-2h28c1.10457,0 2,0.89543 2,2v40c0,1.10457 -0.89543,2 -2,2z" id="base 1 5" fill="#512da8" stroke-width="1"></path><path d="M30.9093,17.0907l9.0907,9.0907v17.8186c0,1.10457 -0.89543,2 -2,2h-5.8186l-15.0907,-15.0907c-1.76778,-1.76778 -2.86081,-4.21031 -2.86081,-6.9093c0,-5.39799 4.37212,-9.77011 9.77011,-9.77011c2.69899,0 5.14152,1.09303 6.9093,2.86081z" fill="url(#color-1)" stroke-width="1"></path><path d="M24,14.22989c-5.39799,0 -9.77011,4.37212 -9.77011,9.77011c0,5.39799 4.37212,9.77011 9.77011,9.77011c5.39799,0 9.77011,-4.37212 9.77011,-9.77011c0,-5.39799 -4.37212,-9.77011 -9.77011,-9.77011zM25.38247,29.95v1.86609h-2.60373v-1.88563c-1.6658,-0.35661 -3.09224,-1.42644 -3.19483,-3.32672h1.91006c0.0977,1.02586 0.80115,1.82213 2.58908,1.82213c1.91983,0 2.34483,-0.95747 2.34483,-1.55345c0,-0.80603 -0.43477,-1.57299 -2.60373,-2.0908c-2.42299,-0.58132 -4.08391,-1.58276 -4.08391,-3.58563c0,-1.67557 1.35316,-2.76983 3.0385,-3.13621v-1.87586h2.60373v1.90029c1.81724,0.44454 2.72586,1.81724 2.78937,3.30718h-1.92471c-0.05374,-1.08448 -0.62529,-1.82213 -2.16896,-1.82213c-1.46552,0 -2.34483,0.65948 -2.34483,1.60718c0,0.82557 0.63506,1.35316 2.60373,1.86609c1.97356,0.51293 4.08391,1.35316 4.08391,3.82011c0,1.78304 -1.34828,2.76494 -3.0385,3.08735z" fill="none" stroke-width="0"></path><path d="M33.77011,24c0,5.39799 -4.37212,9.77011 -9.77011,9.77011c-5.39799,0 -9.77011,-4.37212 -9.77011,-9.77011c0,-5.39799 4.37212,-9.77011 9.77011,-9.77011c5.39799,0 9.77011,4.37212 9.77011,9.77011zM28.42097,26.86264c0,-2.46695 -2.11034,-3.30718 -4.08391,-3.82011c-1.96868,-0.51293 -2.60373,-1.04052 -2.60373,-1.86609c0,-0.9477 0.87931,-1.60718 2.34483,-1.60718c1.54368,0 2.11523,0.73764 2.16896,1.82213h1.92471c-0.06351,-1.48994 -0.97213,-2.86264 -2.78937,-3.30718v-1.90029h-2.60373v1.87586c-1.68534,0.36638 -3.0385,1.46063 -3.0385,3.13621c0,2.00287 1.66092,3.00431 4.08391,3.58563c2.16896,0.51782 2.60373,1.28477 2.60373,2.0908c0,0.59598 -0.425,1.55345 -2.34483,1.55345c-1.78793,0 -2.49138,-0.79626 -2.58908,-1.82213h-1.91006c0.10259,1.90029 1.52902,2.97011 3.19483,3.32672v1.88563h2.60373v-1.86609c1.69023,-0.32241 3.0385,-1.30431 3.0385,-3.08735z" fill="#ffffff" stroke-width="0"></path><path d="M2,24c0,-12.15026 9.84974,-22 22,-22c12.15026,0 22,9.84974 22,22c0,12.15026 -9.84974,22 -22,22c-12.15026,0 -22,-9.84974 -22,-22z" id="base 1 1 1" fill="none" stroke-width="1"></path><g fill="#000000" stroke-width="1" font-family="Roboto, sans-serif" font-weight="400" font-size="14" text-anchor="start"></g><path d="M10,36v-12h30v12z" id="banner 1" fill="#404041" stroke-width="1" filter="url(#dropshadow-banner)"></path><text x="25" y="33" fill="#ffffff" stroke-width="1" font-family="sans-serif" font-weight="bold" font-size="8" text-anchor="middle">DEV</text><rect x="2" y="2" width="44" height="22" fill="none" stroke-width="1"></rect><path d="M2,24v-22h44v22z" fill="none" stroke-width="1"></path><path d="M2,24v-22h44v22z" fill="none" stroke-width="1"></path><path d="M8,4c0,-1.10457 0.89543,-2 2,-2h28c1.10457,0 2,0.89543 2,2v20h-32z" id="base 1 3 1" fill-opacity="0.1" fill="#000000" stroke-width="1"></path><path d="M2,24v-22h44v22z" fill="none" stroke-width="1"></path><path d="M2,24v-22h44v22z" fill="none" stroke-width="1"></path></g></svg>